<?xml version="1.0" encoding="UTF-8" standalone="no"?>
<!-- Created with Inkscape (http://www.inkscape.org/) -->

<svg
   width="11in"
   height="8.5in"
   viewBox="0 0 279.4 215.9"
   version="1.1"
   id="svg5"
   inkscape:version="1.1 (c68e22c387, 2021-05-23)"
   sodipodi:docname="NAC. 2022 art.svg"
   xmlns:inkscape="http://www.inkscape.org/namespaces/inkscape"
   xmlns:sodipodi="http://sodipodi.sourceforge.net/DTD/sodipodi-0.dtd"
   xmlns="http://www.w3.org/2000/svg"
   xmlns:svg="http://www.w3.org/2000/svg">
  <sodipodi:namedview
     id="namedview7"
     pagecolor="#505050"
     bordercolor="#eeeeee"
     borderopacity="1"
     inkscape:pageshadow="0"
     inkscape:pageopacity="0"
     inkscape:pagecheckerboard="0"
     inkscape:document-units="mm"
     showgrid="false"
     units="in"
     inkscape:zoom="0.9814281"
     inkscape:cx="757.5695"
     inkscape:cy="437.11811"
     inkscape:window-width="2560"
     inkscape:window-height="1316"
     inkscape:window-x="-12"
     inkscape:window-y="-12"
     inkscape:window-maximized="1"
     inkscape:current-layer="layer1" />
  <defs
     id="defs2" />
  <g
     inkscape:label="Layer 1"
     inkscape:groupmode="layer"
     id="layer1">
    <path
       style="fill:none;stroke:#000000;stroke-width:1.27;stroke-linecap:butt;stroke-linejoin:miter;stroke-opacity:1;stroke-miterlimit:4;stroke-dasharray:none"
       d="m 14.869063,219.60462 c 0,0 -9.1501927,-123.5276 123.527597,-123.5276 132.6778,0 132.29653,121.62131 132.29653,121.62131"
       id="path861" />
    <path
       style="fill:none;stroke:#000000;stroke-width:1.27;stroke-linecap:butt;stroke-linejoin:miter;stroke-opacity:1;stroke-miterlimit:4;stroke-dasharray:none"
       d="m 270.69319,217.69833 h 45.75096 c 0,0 0,-178.047496 -178.04749,-178.047496 -178.047494,0 -173.472398,180.335046 -173.472398,180.335046 l 49.944801,-0.38126"
       id="path863" />
    <path
       style="fill:none;stroke:#000000;stroke-width:1.27;stroke-linecap:butt;stroke-linejoin:miter;stroke-opacity:1;stroke-miterlimit:4;stroke-dasharray:none"
       d="m -11.818998,219.98588 c 0,0 1.8874608,-150.679568 150.679568,-150.679568 148.7921,0 155.53186,148.252928 155.53186,148.252928"
       id="path984" />
    <path
       style="fill:none;stroke:#000000;stroke-width:1.27;stroke-linecap:butt;stroke-linejoin:miter;stroke-opacity:1;stroke-miterlimit:4;stroke-dasharray:none"
       d="m 0.80877039,220.25514 c 0,0 1.61754081,-136.412609 136.41260961,-136.412609 134.79505,0 145.03948,133.716709 145.03948,133.716709"
       id="path993" />
    <path
       style="fill:none;stroke:#000000;stroke-width:1.27;stroke-linecap:butt;stroke-linejoin:miter;stroke-opacity:1;stroke-miterlimit:4;stroke-dasharray:none"
       d="m 305.44561,217.55924 c 0,0 -1.34795,-163.506419 -163.50641,-163.506419 -162.15846,0 -165.393541,165.393549 -165.393541,165.393549"
       id="path995" />
    <path
       id="path1110"
       style="fill:#ffffff;stroke-width:9.60000012;stroke-linecap:square;paint-order:stroke markers fill;stroke:#000000;stroke-miterlimit:4;stroke-dasharray:none"
       d="M 762.41016 1.5292969 A 70.560441 62.154321 0 0 0 691.84961 63.683594 A 70.560441 62.154321 0 0 0 704.3125 98.939453 A 22.671043 22.416312 0 0 0 683.69727 121.25195 A 22.671043 22.416312 0 0 0 706.36914 143.66797 A 22.671043 22.416312 0 0 0 729.03906 121.25195 A 22.671043 22.416312 0 0 0 728.8418 118.30664 A 70.560441 62.154321 0 0 0 762.41016 125.83789 A 70.560441 62.154321 0 0 0 767.7832 125.6543 A 33.879201 27.765661 0 0 0 790.83594 151.37109 A 15.029118 12.736542 0 0 0 784.06055 162.00977 A 15.029118 12.736542 0 0 0 799.08984 174.74609 A 15.029118 12.736542 0 0 0 814.11914 162.00977 A 15.029118 12.736542 0 0 0 808.70703 152.22266 A 33.879201 27.765661 0 0 0 835.51758 125.07227 A 33.879201 27.765661 0 0 0 818.70312 101.08984 A 70.560441 62.154321 0 0 0 832.9707 63.683594 A 70.560441 62.154321 0 0 0 762.41016 1.5292969 z M 846.72461 2.546875 A 15.28385 12.991273 0 0 0 831.44141 15.539062 A 15.28385 12.991273 0 0 0 846.72461 28.529297 A 15.28385 12.991273 0 0 0 862.00977 15.539062 A 15.28385 12.991273 0 0 0 846.72461 2.546875 z M 353.3125 11.208984 A 15.538581 14.774388 0 0 0 337.77344 25.982422 A 15.538581 14.774388 0 0 0 353.3125 40.757812 A 15.538581 14.774388 0 0 0 353.50977 40.75 A 35.152855 33.11501 0 0 0 352.54688 48.398438 A 35.152855 33.11501 0 0 0 387.70117 81.513672 A 35.152855 33.11501 0 0 0 414.84375 69.417969 A 13.246003 14.519657 0 0 0 424.38086 73.871094 A 13.246003 14.519657 0 0 0 437.62695 59.351562 A 13.246003 14.519657 0 0 0 424.38086 44.832031 A 13.246003 14.519657 0 0 0 422.66211 44.962891 A 35.152855 33.11501 0 0 0 387.70117 15.283203 A 35.152855 33.11501 0 0 0 367.94336 21.011719 A 15.538581 14.774388 0 0 0 353.3125 11.208984 z M 1001.0918 12.736328 A 37.1907 30.567699 0 0 0 964.21289 39.464844 A 28.020392 25.473083 0 0 0 940.4668 27.511719 A 28.020392 25.473083 0 0 0 912.44531 52.984375 A 28.020392 25.473083 0 0 0 925.15625 74.302734 A 43.304241 41.521125 0 0 0 916.01172 73.363281 A 43.304241 41.521125 0 0 0 872.70703 114.88281 A 43.304241 41.521125 0 0 0 916.01172 156.4043 A 43.304241 41.521125 0 0 0 920.93945 156.10547 A 22.671043 18.085889 0 0 0 919.57812 162.26367 A 22.671043 18.085889 0 0 0 942.25 180.34961 A 22.671043 18.085889 0 0 0 964.91992 162.26367 A 22.671043 18.085889 0 0 0 946.34766 144.47656 A 43.304241 41.521125 0 0 0 959.31641 114.88281 A 43.304241 41.521125 0 0 0 936.21484 78.160156 A 28.020392 25.473083 0 0 0 940.4668 78.457031 A 28.020392 25.473083 0 0 0 968.0625 57.314453 A 37.1907 30.567699 0 0 0 1001.0918 73.871094 A 37.1907 30.567699 0 0 0 1038.2832 43.304688 A 37.1907 30.567699 0 0 0 1001.0918 12.736328 z M 113.09961 15.283203 A 17.831157 17.066965 0 0 0 95.269531 32.351562 A 17.831157 17.066965 0 0 0 101.35938 45.179688 A 154.36688 61.135397 0 0 0 40.757812 93.740234 A 154.36688 61.135397 0 0 0 98.945312 141.55664 A 43.813704 41.775855 0 0 0 79.476562 176.27344 A 43.813704 41.775855 0 0 0 123.28906 218.04883 A 43.813704 41.775855 0 0 0 167.10352 176.27344 A 43.813704 41.775855 0 0 0 159.82031 153.21094 A 154.36688 61.135397 0 0 0 195.12305 154.87695 A 154.36688 61.135397 0 0 0 293.6875 140.75 A 43.813703 39.228548 0 0 0 312.80859 144.6875 A 43.813703 39.228548 0 0 0 356.62305 105.45898 A 43.813703 39.228548 0 0 0 344.57227 78.443359 A 154.36688 61.135397 0 0 0 195.12305 32.605469 A 154.36688 61.135397 0 0 0 129.77148 38.386719 A 17.831157 17.066965 0 0 0 130.93164 32.351562 A 17.831157 17.066965 0 0 0 113.09961 15.283203 z M 587.41016 16.8125 A 13.246003 11.717618 0 0 0 574.16406 28.529297 A 13.246003 11.717618 0 0 0 587.41016 40.248047 A 13.246003 11.717618 0 0 0 600.65625 28.529297 A 13.246003 11.717618 0 0 0 587.41016 16.8125 z M 511.75391 42.794922 A 42.540049 36.681241 0 0 0 469.21484 79.476562 A 42.540049 36.681241 0 0 0 511.75391 116.1582 A 42.540049 36.681241 0 0 0 546.0957 101.10352 A 17.831157 15.793312 0 0 0 560.4082 107.49609 A 17.831157 15.793312 0 0 0 578.23828 91.703125 A 17.831157 15.793312 0 0 0 560.4082 75.910156 A 17.831157 15.793312 0 0 0 554.18945 76.910156 A 42.540049 36.681241 0 0 0 511.75391 42.794922 z M 639.375 48.908203 A 9.6797714 11.462888 0 0 0 629.69531 60.371094 A 9.6797714 11.462888 0 0 0 631.15625 66.419922 A 24.70889 19.869005 0 0 0 614.91992 85.080078 A 24.70889 19.869005 0 0 0 639.62891 104.94922 A 24.70889 19.869005 0 0 0 664.33789 85.080078 A 24.70889 19.869005 0 0 0 647.65625 66.291016 A 9.6797714 11.462888 0 0 0 649.05469 60.371094 A 9.6797714 11.462888 0 0 0 639.375 48.908203 z M 873.98242 52.474609 A 12.481811 10.443964 0 0 0 861.5 62.917969 A 12.481811 10.443964 0 0 0 873.98242 73.363281 A 12.481811 10.443964 0 0 0 886.46289 62.917969 A 12.481811 10.443964 0 0 0 873.98242 52.474609 z M 987.5918 86.099609 A 14.010196 14.774388 0 0 0 973.58203 100.87305 A 14.010196 14.774388 0 0 0 987.5918 115.64844 A 14.010196 14.774388 0 0 0 1001.6016 100.87305 A 14.010196 14.774388 0 0 0 987.5918 86.099609 z M 978.42188 142.64844 A 8.9155782 7.6419247 0 0 0 969.50586 150.29102 A 8.9155782 7.6419247 0 0 0 978.42188 157.93359 A 8.9155782 7.6419247 0 0 0 987.33594 150.29102 A 8.9155782 7.6419247 0 0 0 978.42188 142.64844 z M 214.48242 155.89453 A 25.982545 22.416312 0 0 0 188.5 178.3125 A 25.982545 22.416312 0 0 0 214.48242 200.72852 A 25.982545 22.416312 0 0 0 240.4668 178.3125 A 25.982545 22.416312 0 0 0 214.48242 155.89453 z M 965.17578 176.27344 A 14.519657 13.755467 0 0 0 950.65625 190.0293 A 14.519657 13.755467 0 0 0 965.17578 203.78516 A 14.519657 13.755467 0 0 0 979.69531 190.0293 A 14.519657 13.755467 0 0 0 965.17578 176.27344 z "
       transform="scale(0.26458333)" />
    <ellipse
       style="fill:#ffffff;stroke:#000000;stroke-width:2.53992;stroke-linecap:square;stroke-miterlimit:4;stroke-dasharray:none;paint-order:stroke markers fill"
       id="path1379"
       cx="111.68252"
       cy="137.96539"
       rx="8.6263542"
       ry="11.996768" />
    <path
       style="fill:none;stroke:#000000;stroke-width:1.26996;stroke-linecap:butt;stroke-linejoin:miter;stroke-miterlimit:4;stroke-dasharray:none;stroke-opacity:1"
       d="m 111.95209,155.62355 c 0,0 -14.92504,-0.55793 -14.92504,8.61752 0,9.17544 0,20.09385 0,20.09385"
       id="path1414" />
    <path
       style="fill:none;stroke:#000000;stroke-width:1.26996;stroke-linecap:butt;stroke-linejoin:miter;stroke-miterlimit:4;stroke-dasharray:none;stroke-opacity:1"
       d="m 111.95209,155.62355 c 0,0 10.33394,-1.1238 15.3968,6.5282 l 9.77204,14.76945"
       id="path1508"
       sodipodi:nodetypes="csc" />
    <path
       style="fill:none;stroke:#000000;stroke-width:1.26996;stroke-linecap:butt;stroke-linejoin:miter;stroke-miterlimit:4;stroke-dasharray:none;stroke-opacity:1"
       d="m 102.18005,184.53711 v -18.46693 c 0,0 -0.0674,-2.7296 2.72944,-2.7296 v 20.79215"
       id="path1556" />
    <ellipse
       style="fill:#ffffff;stroke:#000000;stroke-width:2.53992;stroke-linecap:square;stroke-miterlimit:4;stroke-dasharray:none;paint-order:stroke markers fill"
       id="path2847"
       cx="99.568558"
       cy="187.74692"
       rx="4.0773005"
       ry="4.0775537" />
    <ellipse
       style="fill:#ffffff;stroke:#000000;stroke-width:2.53992;stroke-linecap:square;stroke-miterlimit:4;stroke-dasharray:none;paint-order:stroke markers fill"
       id="circle3160"
       cx="137.0441"
       cy="181.063"
       rx="4.0773005"
       ry="4.0775537" />
    <path
       style="fill:none;stroke:#000000;stroke-width:1.26996;stroke-linecap:butt;stroke-linejoin:miter;stroke-miterlimit:4;stroke-dasharray:none;stroke-opacity:1"
       d="m 118.21968,184.33492 v -21.09544 c 0,0 1.42745,-0.20092 2.22438,0.59606 0.79693,0.79698 12.06302,15.91635 12.06302,15.91635"
       id="path3195" />
    <path
       style="fill:none;stroke:#000000;stroke-width:1.26996;stroke-linecap:butt;stroke-linejoin:miter;stroke-miterlimit:4;stroke-dasharray:none;stroke-opacity:1"
       d="m 104.90949,184.13273 v 21.36536 h 4.9198 V 184.2906 h 3.52643 v 21.11217 h 5.09902 l -0.23506,-21.06785"
       id="path3412" />
    <path
       style="fill:none;stroke:#000000;stroke-width:1.26996;stroke-linecap:butt;stroke-linejoin:miter;stroke-miterlimit:4;stroke-dasharray:none;stroke-opacity:1"
       d="m 104.90949,205.49809 c 0,0 -0.56044,7.17242 2.08437,7.17242 2.64482,0 2.83543,-7.17242 2.83543,-7.17242"
       id="path3432" />
    <path
       style="fill:none;stroke:#000000;stroke-width:1.26996;stroke-linecap:butt;stroke-linejoin:miter;stroke-miterlimit:4;stroke-dasharray:none;stroke-opacity:1"
       d="m 113.35572,205.40277 c 0,0 0.21445,7.29157 2.76395,7.29157 2.5495,0 2.33507,-7.29157 2.33507,-7.29157"
       id="path3434" />
    <ellipse
       style="fill:#ffffff;stroke:#000000;stroke-width:2.53992;stroke-linecap:square;stroke-miterlimit:4;stroke-dasharray:none;paint-order:stroke markers fill"
       id="ellipse4272"
       cx="-167.71748"
       cy="137.96539"
       rx="8.6263542"
       ry="11.996768"
       transform="scale(-1,1)" />
    <path
       style="fill:none;stroke:#000000;stroke-width:1.26996;stroke-linecap:butt;stroke-linejoin:miter;stroke-miterlimit:4;stroke-dasharray:none;stroke-opacity:1"
       d="m 167.44791,155.62355 c 0,0 14.92504,-0.55793 14.92504,8.61752 0,9.17544 0,20.09385 0,20.09385"
       id="path4274" />
    <path
       style="fill:none;stroke:#000000;stroke-width:1.26996;stroke-linecap:butt;stroke-linejoin:miter;stroke-miterlimit:4;stroke-dasharray:none;stroke-opacity:1"
       d="m 167.44791,155.62355 c 0,0 -10.33394,-1.1238 -15.3968,6.5282 l -9.77204,14.76945"
       id="path4276"
       sodipodi:nodetypes="csc" />
    <path
       style="fill:none;stroke:#000000;stroke-width:1.26996;stroke-linecap:butt;stroke-linejoin:miter;stroke-miterlimit:4;stroke-dasharray:none;stroke-opacity:1"
       d="m 177.21995,184.53711 v -18.46693 c 0,0 0.0674,-2.7296 -2.72943,-2.7296 v 20.79215"
       id="path4278" />
    <ellipse
       style="fill:#ffffff;stroke:#000000;stroke-width:2.53992;stroke-linecap:square;stroke-miterlimit:4;stroke-dasharray:none;paint-order:stroke markers fill"
       id="circle4280"
       cx="-179.83144"
       cy="187.74692"
       transform="scale(-1,1)"
       rx="4.0773005"
       ry="4.0775537" />
    <ellipse
       style="fill:#ffffff;stroke:#000000;stroke-width:2.53992;stroke-linecap:square;stroke-miterlimit:4;stroke-dasharray:none;paint-order:stroke markers fill"
       id="circle4282"
       cx="-142.35593"
       cy="181.063"
       transform="scale(-1,1)"
       rx="4.0773005"
       ry="4.0775537" />
    <path
       style="fill:none;stroke:#000000;stroke-width:1.26996;stroke-linecap:butt;stroke-linejoin:miter;stroke-miterlimit:4;stroke-dasharray:none;stroke-opacity:1"
       d="m 161.18032,184.33492 v -21.09544 c 0,0 -1.42745,-0.20092 -2.22438,0.59606 -0.79693,0.79698 -12.06302,15.91635 -12.06302,15.91635"
       id="path4284" />
    <path
       style="fill:none;stroke:#000000;stroke-width:1.26996;stroke-linecap:butt;stroke-linejoin:miter;stroke-miterlimit:4;stroke-dasharray:none;stroke-opacity:1"
       d="m 174.49052,184.13273 v 21.36536 h -4.91981 V 184.2906 h -3.52642 v 21.11217 h -5.09902 l 0.23505,-21.06785"
       id="path4286" />
    <path
       style="fill:none;stroke:#000000;stroke-width:1.26996;stroke-linecap:butt;stroke-linejoin:miter;stroke-miterlimit:4;stroke-dasharray:none;stroke-opacity:1"
       d="m 174.49052,205.49809 c 0,0 0.56043,7.17242 -2.08438,7.17242 -2.64481,0 -2.83543,-7.17242 -2.83543,-7.17242"
       id="path4288" />
    <path
       style="fill:none;stroke:#000000;stroke-width:1.26996;stroke-linecap:butt;stroke-linejoin:miter;stroke-miterlimit:4;stroke-dasharray:none;stroke-opacity:1"
       d="m 166.04429,205.40277 c 0,0 -0.21445,7.29157 -2.76395,7.29157 -2.54951,0 -2.33507,-7.29157 -2.33507,-7.29157"
       id="path4290" />
  </g>
</svg>
